# AST/ASF file generated using VICON BodyLanguage
# -----------------------------------------------
:version 1.10
:name VICON
:units
  mass 1.0
  length 0.45
  angle deg
:documentation
   .ast/.asf automatically generated from VICON data using
   VICON BodyBuilder and BodyLanguage model FoxedUp or BRILLIANT.MOD
:root
   order TX TY TZ RX RY RZ
   axis XYZ
   position 0 0 0  
   orientation 0 0 0 
:bonedata
  begin
     id 1 
     name lhipjoint
     direction 0.62366 -0.717238 0.310833 
     length 2.53602 
     axis 0 0 0  XYZ
  end
  begin
     id 2 
     name lfemur
     direction 0.34202 -0.939693 0  
     length 7.40817  
     axis 0 0 20  XYZ
    dof rx ry rz
    limits (-160.0 20.0)
           (-70.0 70.0)
           (-60.0 70.0)
  end
  begin
     id 3 
     name ltibia
     direction 0.34202 -0.939693 0   
     length 7.7045   
     axis 0 0 20   XYZ
    dof rx
    limits (-10.0 170.0)
  end
  begin
     id 4 
     name lfoot
     direction 0.0673888 -0.185149 0.980397   
     length 2.09456   
     axis -90 7.62852e-016 20   XYZ
    dof rx rz
    limits (-45.0 90.0)
           (-70.0 20.0)
  end
  begin
     id 5 
     name ltoes
     direction 1.53575e-011 -4.21994e-011 1   
     length 1.05543   
     axis -90 7.62852e-016 20   XYZ
    dof rx
    limits (-90.0 20.0)
  end
  begin
     id 6 
     name rhipjoint
     direction -0.489018 -0.800347 0.346851   
     length 2.27268  
     axis 0 0 0  XYZ 
  end
  begin
     id 7 
     name rfemur
     direction -0.34202 -0.939693 0   
     length 7.55487   
     axis 0 0 -20   XYZ
    dof rx ry rz
    limits (-160.0 20.0)
           (-70.0 70.0)
           (-70.0 60.0)
  end
  begin
     id 8 
     name rtibia
     direction -0.34202 -0.939693 0   
     length 7.78969   
     axis 0 0 -20   XYZ
    dof rx
    limits (-10.0 170.0)
 end
 begin
     id 9 
     name rfoot
     direction -0.0859318 -0.236096 0.967923   
     length 2.19143  
     axis -90 -7.62852e-016 -20   XYZ
    dof rx rz
    limits (-45.0 90.0)
           (-20.0 70.0)
  end
  begin
     id 10 
     name rtoes
     direction -1.53538e-011 -4.21989e-011 1   
     length 1.09845   
     axis -90 -7.62852e-016 -20   XYZ
    dof rx
    limits (-90.0 20.0)
  end
  begin
     id 11 
     name lowerback
     direction -0.00762546 0.998978 -0.0445553   
     length 1.98161   
     axis 0 0 0   XYZ
    dof rx ry rz
    limits (-20.0 45.0)
           (-30.0 30.0)
           (-30.0 30.0)
  end
  begin
     id 12 
     name upperback
     direction 0.0422361 0.998867 -0.0219156   
     length 1.97558   
     axis 0 0 0   XYZ
    dof rx ry rz
    limits (-20.0 45.0)
           (-30.0 30.0)
           (-30.0 30.0)
  end
  begin
     id 13 
     name thorax
     direction 0.0442465 0.999021 7.47603e-005   
     length 1.97799   
     axis 0 0 0   XYZ
    dof rx ry rz
    limits (-20.0 45.0)
           (-30.0 30.0)
           (-30.0 30.0)
  end
  begin
     id 14 
     name lowerneck
     direction 0.00312169 0.984641 0.174564   
     length 1.78995   
     axis 0 0 0   XYZ
    dof rx ry rz
    limits (-20.0 45.0)
           (-30.0 30.0)
           (-30.0 30.0)
  end
  begin
     id 15 
     name upperneck
     direction -0.0383028 0.985255 -0.166749   
     length 1.83053   
     axis 0 0 0   XYZ
    dof rx ry rz
    limits (-20.0 45.0)
           (-30.0 30.0)
           (-30.0 30.0)
  end
  begin
     id 16
     name head
     direction -0.0129546 0.997059 -0.0755386  
     length 1.84088  
     axis 0 0 0   XYZ
    dof rx ry rz
    limits (-20.0 45.0)
           (-30.0 30.0)
           (-30.0 30.0)
  end
  begin
     id 17 
     name lclavicle
     direction 0.912857 0.370519 -0.171488  
     length 3.51279  
     axis 0 0 0   XYZ
    dof ry rz
    limits (-20.0 10.0)
           (0.0 20.0)
  end
  begin
     id 18 
     name lhumerus
     direction 1 -4.48962e-011 3.64361e-027   
     length 4.95663   
     axis 180 -30 -90   XYZ
    dof rx ry rz
    limits (-60.0 90.0)
           (-90.0 90.0)
           (-90.0 90.0)
  end
  begin
     id 19
     name lradius
     direction 1 -4.48974e-011 5.97202e-027   
     length 3.38177   
     axis 180 -30 -90   XYZ
    dof rx
    limits (-10.0 170.0)
  end
  begin
     id 20
     name lwrist
     direction 1 -4.4896e-011 9.83288e-027   
     length 1.69088   
     axis -9.31221e-015 90 90   XYZ
    dof ry
    limits (-180.0 0.0)
 end
  begin
     id 21 
     name lhand
     direction 1 -4.4902e-011 1.96551e-026   
     length 0.662909   
     axis -1.25475e-014 90 90   XYZ
    dof rx rz
    limits (-90.0 90.0)
           (-45.0 45.0)
  end
  begin
     id 22 
     name lfingers
     direction 1 -4.48971e-011 3.93277e-026   
     length 0.534454   
     axis -2.50945e-014 90 90   XYZ
    dof rx
    limits (0.0 90.0)
  end
  begin
     id 23
     name lthumb
     direction 0.707107 -6.34933e-011 0.707107   
     length 0.767373   
     axis -90 45 -4.80359e-014   XYZ
    dof rx rz
    limits (-45.0 45.0)
           (-45.0 45.0)
  end
  begin
     id 24 
     name rclavicle
     direction -0.900919 0.395364 -0.178976   
     length 3.40627  
     axis 0 0 0   XYZ 
    dof ry rz
    limits (-10.0 20.0)
           (-20.0 0.0)
  end
  begin
     id 25 
     name rhumerus
     direction -1 -4.48969e-011 1.03875e-027  
     length 5.08365   
     axis 180 30 90   XYZ
    dof rx ry rz
    limits (-90.0 60.0)
           (-90.0 90.0)
           (-90.0 90.0)
  end
  begin
     id 26 
     name rradius
     direction -1 -4.48951e-011 5.02733e-027   
     length 3.35984   
     axis 180 30 90   XYZ
    dof rx
    limits (-10.0 170.0)
  end
  begin
     id 27 
     name rwrist
     direction -1 -4.49011e-011 9.82828e-027   
     length 1.67992   
     axis -9.31221e-015 -90 -90   XYZ
    dof ry
    limits (-180.0 0.0)
  end
  begin
     id 28
     name rhand
     direction -1 -4.48894e-011 1.96774e-026   
     length 0.820764   
     axis -1.25475e-014 -90 -90   XYZ
    dof rx rz
    limits (-90.0 90.0)
           (-45.0 45.0)
  end
  begin
     id 29
     name rfingers
     direction -1 -4.49095e-011 3.92833e-026   
     length 0.661721   
     axis -2.50945e-014 -90 -90   XYZ
    dof rx
    limits (0.0 90.0)
  end
  begin
     id 30
     name rthumb
     direction -0.707107 -6.34881e-011 0.707107   
     length 0.950103   
     axis -90 -45 4.80359e-014   XYZ
    dof rx rz
    limits (-45.0 45.0)
           (-45.0 45.0)
  end
:hierarchy
  begin
    root lhipjoint rhipjoint lowerback
    lhipjoint lfemur
    lfemur ltibia
    ltibia lfoot
    lfoot ltoes
    rhipjoint rfemur
    rfemur rtibia
    rtibia rfoot
    rfoot rtoes
    lowerback upperback
    upperback thorax
    thorax lowerneck lclavicle rclavicle
    lowerneck upperneck
    upperneck head
    lclavicle lhumerus
    lhumerus lradius
    lradius lwrist
    lwrist lhand lthumb
    lhand lfingers
    rclavicle rhumerus
    rhumerus rradius
    rradius rwrist
    rwrist rhand rthumb
    rhand rfingers
  end

#!OML:ASF I:\golf\golf\golf 2\Subject 1\2002-09-07\Subject1.ASF
:FULLY-SPECIFIED
:DEGREES
31
root -5.81478 17.8694 1.72378 -78.5463 86.3458 -96.1226
lowerback 4.43995 1.58638 -1.3744
upperback 3.2027 2.20644 5.0799
thorax 0.562494 1.10176 5.95108
lowerneck -17.0098 -1.71208 1.79234
upperneck 40.9124 1.4056 -6.08913
head 18.2545 0.58568 -2.72106
rclavicle 1.70955e-014 3.10104e-014
rhumerus -4.39708 -2.94926 -101.029
rradius 20.4446
rwrist -31.9632
rhand -13.7675 -6.22959
rfingers 7.12502
rthumb 12.3533 -35.8446
lclavicle 1.70955e-014 3.10104e-014
lhumerus -10.6212 -43.4296 110.953
lradius 27.8433
lwrist 45.3041
lhand -12.9757 68.8136
lfingers 7.12502
lthumb -166.883 81.6189
rfemur -29.6486 0.16155 12.7342
rtibia 28.8661
rfoot -11.3014 -9.6145
rtoes 19.2867
lfemur -31.269 5.2809 -9.51791
ltibia 30.3454
lfoot -11.3639 0.494349
ltoes -24.5351
32
root -5.81496 17.8713 1.7216 -78.3718 86.3536 -95.9467
lowerback 4.44098 1.5878 -1.35156
upperback 3.20797 2.20854 5.06292
thorax 0.568494 1.10292 5.92002
lowerneck -17.0115 -1.70716 1.78479
upperneck 40.909 1.40135 -6.05839
head 18.2522 0.586533 -2.70587
rclavicle -2.38542e-015 -3.18055e-014
rhumerus -4.36902 -3.01322 -101.091
rradius 20.4112
rwrist -31.9699
rhand -13.9107 -6.21391
rfingers 7.12502
rthumb 12.2152 -35.8372
lclavicle -2.38542e-015 -3.18055e-014
lhumerus -10.6191 -43.5382 110.89
lradius 27.9193
lwrist 45.4721
lhand -12.883 68.7445
lfingers 7.12502
lthumb -166.794 81.6938
rfemur -29.6661 0.178337 12.714
rtibia 28.906
rfoot -11.5005 -9.51343
rtoes 21.494
lfemur -31.2592 5.23895 -9.51435
ltibia 30.3462
lfoot -11.3097 0.448159
ltoes -22.8641
33
root -5.81402 17.868 1.71976 -78.0652 86.3592 -95.6322
lowerback 4.44212 1.58834 -1.35319
upperback 3.2108 2.20932 5.06702
thorax 0.570506 1.10325 5.92529
lowerneck -17.0082 -1.70317 1.76539
upperneck 40.9187 1.41744 -6.05823
head 18.2584 0.590488 -2.6994
rclavicle -3.57812e-015 -1.59028e-015
rhumerus -4.35176 -2.99508 -101.108
rradius 20.3928
rwrist -32.0537
rhand -13.9541 -6.16151
rfingers 7.12502
rthumb 12.1733 -35.7873
lclavicle -3.57812e-015 -1.59028e-015
lhumerus -10.601 -43.466 110.886
lradius 27.9003
lwrist 45.4197
lhand -12.8237 68.7607
lfingers 7.12502
lthumb -166.737 81.6813
rfemur -29.6446 0.270288 12.665
rtibia 28.8928
rfoot -11.8063 -9.3887
rtoes 24.4375
lfemur -31.279 5.27868 -9.53686
ltibia 30.411
lfoot -11.381 0.529543
ltoes -24.6613
34
root -5.81313 17.8641 1.71814 -77.9024 86.3311 -95.4522
lowerback 4.46075 1.58741 -1.34273
upperback 3.20835 2.20988 5.09569
thorax 0.55686 1.10422 5.94898
lowerneck -16.9958 -1.69079 1.76789
upperneck 40.9153 1.4544 -6.09814
head 18.2566 0.600744 -2.71113
rclavicle -1.59028e-015 -1.59028e-014
rhumerus -4.35362 -3.07018 -101.099
rradius 20.378
rwrist -32.033
rhand -13.8489 -6.16361
rfingers 7.12502
rthumb 12.2748 -35.7834
lclavicle -1.59028e-015 -1.59028e-014
lhumerus -10.6106 -43.2704 110.935
lradius 27.8335
lwrist 45.2543
lhand -12.8488 68.7684
lfingers 7.12502
lthumb -166.761 81.6721
rfemur -29.6069 0.282512 12.6852
rtibia 28.8498
rfoot -11.9469 -9.29983
rtoes 25.8436
lfemur -31.3098 5.33657 -9.53079
ltibia 30.5014
lfoot -11.4631 0.599549
ltoes -26.3352
35
root -5.81231 17.8687 1.71529 -77.6893 86.2933 -95.2522
lowerback 4.44178 1.5629 -1.33275
upperback 3.19917 2.17846 5.1288
thorax 0.560708 1.08877 5.98015
lowerneck -16.9795 -1.66038 1.79195
upperneck 40.8962 1.51883 -6.16459
head 18.2469 0.620751 -2.7335
rclavicle -1.27222e-014 6.36111e-015
rhumerus -4.3943 -3.073 -101.12
rradius 20.3895
rwrist -32.021
rhand -13.896 -6.16944
rfingers 7.12502
rthumb 12.2294 -35.7919
lclavicle -1.27222e-014 6.36111e-015
lhumerus -10.5994 -43.0107 110.937
lradius 27.7667
lwrist 45.1301
lhand -12.7703 68.533
lfingers 7.12502
lthumb -166.685 81.9124
rfemur -29.6099 0.240216 12.7388
rtibia 28.8305
rfoot -11.8966 -9.32901
rtoes 24.8322
lfemur -31.2342 5.19139 -9.4025
ltibia 30.5591
lfoot -11.5726 0.454179
ltoes -23.9585
36
root -5.81174 17.8749 1.71237 -77.2093 86.3008 -94.8211
lowerback 4.3898 1.55659 -1.33367
upperback 3.17891 2.16881 5.11906
thorax 0.570173 1.08364 5.9719
lowerneck -16.9651 -1.67234 1.78977
upperneck 40.8905 1.50198 -6.17037
head 18.2383 0.612679 -2.73873
rclavicle -3.57812e-015 1.11319e-014
rhumerus -4.4359 -3.00221 -101.155
rradius 20.4328
rwrist -32.0953
rhand -14.0622 -6.15467
rfingers 7.12502
rthumb 12.0691 -35.7866
lclavicle -3.57812e-015 1.11319e-014
lhumerus -10.6267 -42.9507 110.927
lradius 27.7568
lwrist 45.1247
lhand -12.6559 68.3613
lfingers 7.12502
lthumb -166.575 82.0913
rfemur -29.6645 0.260157 12.7244
rtibia 28.8355
rfoot -11.8407 -9.41778
rtoes 23.8463
lfemur -31.162 5.01984 -9.31219
ltibia 30.5838
lfoot -11.678 0.311393
ltoes -21.5067
37
root -5.8116 17.8696 1.70965 -76.9355 86.3304 -94.5589
lowerback 4.38294 1.59327 -1.29735
upperback 3.17025 2.21752 5.07403
thorax 0.562307 1.10858 5.90116
lowerneck -16.9846 -1.72959 1.78557
upperneck 40.9175 1.39229 -6.11282
head 18.2501 0.576762 -2.73343
rclavicle 1.03368e-014 -1.59028e-014
rhumerus -4.36999 -3.34554 -101.169
rradius 20.341
rwrist -31.8618
rhand -14.0375 -6.0838
rfingers 7.12502
rthumb 12.0929 -35.7143
lclavicle 1.03368e-014 -1.59028e-014
lhumerus -10.735 -43.1858 110.966
lradius 27.8121
lwrist 45.1941
lhand -12.5874 68.3378
lfingers 7.12502
lthumb -166.509 82.1192
rfemur -29.6945 0.263014 12.6836
rtibia 28.8393
rfoot -11.755 -9.46532
rtoes 23.6967
lfemur -31.2919 5.20403 -9.46667
ltibia 30.5947
lfoot -11.6016 0.470835
ltoes -24.0573
38
root -5.81054 17.8621 1.70803 -76.4561 86.3618 -94.0448
lowerback 4.40061 1.61724 -1.30995
upperback 3.18198 2.24835 5.05
thorax 0.561532 1.12365 5.88125
lowerneck -17.0046 -1.74486 1.80719
upperneck 40.9529 1.35712 -6.09329
head 18.2735 0.569903 -2.73675
rclavicle -4.05521e-014 -7.63333e-014
rhumerus -4.31005 -3.60629 -101.199
rradius 20.2574
rwrist -31.7146
rhand -14.025 -6.01624
rfingers 7.12502
rthumb 12.105 -35.6461
lclavicle -4.05521e-014 -7.63333e-014
lhumerus -10.7926 -43.3709 110.969
lradius 27.8719
lwrist 45.3136
lhand -12.5597 68.3065
lfingers 7.12502
lthumb -166.482 82.1523
rfemur -29.6815 0.241231 12.6436
rtibia 28.8578
rfoot -11.6578 -9.43536
rtoes 23.4441
lfemur -31.3698 5.42634 -9.63571
ltibia 30.5796
lfoot -11.532 0.639327
ltoes -26.4939
39
root -5.80876 17.8637 1.70784 -75.6542 86.3568 -93.1925
lowerback 4.42762 1.62653 -1.33184
upperback 3.20226 2.25996 5.04568
thorax 0.565525 1.12892 5.88833
lowerneck -17.0073 -1.72091 1.82447
upperneck 40.9683 1.38684 -6.08502
head 18.2856 0.586003 -2.7309
rclavicle -4.49253e-014 -5.40694e-014
rhumerus -4.32213 -3.54929 -101.253
rradius 20.2939
rwrist -31.7899
rhand -14.1228 -6.10115
rfingers 7.12502
rthumb 12.0107 -35.7365
lclavicle -4.49253e-014 -5.40694e-014
lhumerus -10.7819 -43.3424 110.933
lradius 27.8703
lwrist 45.3866
lhand -12.5806 68.3201
lfingers 7.12502
lthumb -166.503 82.1373
rfemur -29.6466 0.239574 12.6483
rtibia 28.8892
rfoot -11.7099 -9.33259
rtoes 23.7364
lfemur -31.2756 5.43985 -9.62985
ltibia 30.5455
lfoot -11.4602 0.609883
ltoes -25.3485
40
root -5.80772 17.8667 1.70724 -75.3685 86.305 -92.8727
lowerback 4.4492 1.63543 -1.27532
upperback 3.21903 2.27394 5.03634
thorax 0.571566 1.13667 5.84515
lowerneck -17.0103 -1.71075 1.85399
upperneck 40.9517 1.37666 -6.06213
head 18.2751 0.588508 -2.72691
rclavicle -1.98785e-014 -9.14409e-014
rhumerus -4.33359 -3.50162 -101.275
rradius 20.3422
rwrist -31.8135
rhand -14.1266 -6.23576
rfingers 7.12502
rthumb 12.007 -35.8713
lclavicle -1.98785e-014 -9.14409e-014
lhumerus -10.7964 -43.2999 110.92
lradius 27.8421
lwrist 45.395
lhand -12.6049 68.3158
lfingers 7.12502
lthumb -166.526 82.14
rfemur -29.6069 0.245824 12.7076
rtibia 28.8846
rfoot -11.895 -9.2232
rtoes 24.9293
lfemur -31.2185 5.42681 -9.56247
ltibia 30.5521
lfoot -11.3745 0.563676
ltoes -24.2985
